<mxfile host="app.diagrams.net" modified="2023-01-19T12:19:58.171Z" agent="5.0 (X11; Linux x86_64) AppleWebKit/537.36 (KHTML, like Gecko) Chrome/109.0.0.0 Safari/537.36" etag="DkM4jV6Z_aKMzYuKpyKl" version="20.6.0" type="github">
  <diagram id="C5RBs43oDa-KdzZeNtuy" name="Page-1">
    <mxGraphModel dx="1348" dy="805" grid="1" gridSize="10" guides="1" tooltips="1" connect="1" arrows="1" fold="1" page="1" pageScale="1" pageWidth="827" pageHeight="1169" math="0" shadow="0">
      <root>
        <mxCell id="WIyWlLk6GJQsqaUBKTNV-0" />
        <mxCell id="WIyWlLk6GJQsqaUBKTNV-1" parent="WIyWlLk6GJQsqaUBKTNV-0" />
        <mxCell id="8-UZZp7eL8nday4LSBE8-0" value="app&lt;br&gt;" style="rounded=1;whiteSpace=wrap;html=1;verticalAlign=bottom;labelPosition=center;verticalLabelPosition=top;align=center;" vertex="1" parent="WIyWlLk6GJQsqaUBKTNV-1">
          <mxGeometry x="240" y="80" width="80" height="380" as="geometry" />
        </mxCell>
        <mxCell id="8-UZZp7eL8nday4LSBE8-1" value="lib" style="rounded=1;whiteSpace=wrap;html=1;verticalAlign=bottom;labelPosition=center;verticalLabelPosition=top;align=center;" vertex="1" parent="WIyWlLk6GJQsqaUBKTNV-1">
          <mxGeometry x="470" y="80" width="80" height="380" as="geometry" />
        </mxCell>
        <mxCell id="8-UZZp7eL8nday4LSBE8-2" value="oauth provider&lt;br&gt;" style="rounded=1;whiteSpace=wrap;html=1;verticalAlign=bottom;labelPosition=center;verticalLabelPosition=top;align=center;" vertex="1" parent="WIyWlLk6GJQsqaUBKTNV-1">
          <mxGeometry x="720" y="80" width="80" height="380" as="geometry" />
        </mxCell>
        <mxCell id="8-UZZp7eL8nday4LSBE8-3" value="User" style="shape=umlActor;verticalLabelPosition=bottom;verticalAlign=top;html=1;outlineConnect=0;" vertex="1" parent="WIyWlLk6GJQsqaUBKTNV-1">
          <mxGeometry x="40" y="90" width="30" height="60" as="geometry" />
        </mxCell>
        <mxCell id="8-UZZp7eL8nday4LSBE8-5" value="" style="endArrow=classic;html=1;rounded=0;entryX=0.5;entryY=0.053;entryDx=0;entryDy=0;entryPerimeter=0;" edge="1" parent="WIyWlLk6GJQsqaUBKTNV-1" target="8-UZZp7eL8nday4LSBE8-0">
          <mxGeometry width="50" height="50" relative="1" as="geometry">
            <mxPoint x="80" y="100" as="sourcePoint" />
            <mxPoint x="440" y="380" as="targetPoint" />
          </mxGeometry>
        </mxCell>
        <mxCell id="8-UZZp7eL8nday4LSBE8-6" value="redirect?provider=google&lt;br&gt;" style="edgeLabel;html=1;align=center;verticalAlign=middle;resizable=0;points=[];" vertex="1" connectable="0" parent="8-UZZp7eL8nday4LSBE8-5">
          <mxGeometry x="-0.2267" y="-1" relative="1" as="geometry">
            <mxPoint as="offset" />
          </mxGeometry>
        </mxCell>
        <mxCell id="8-UZZp7eL8nday4LSBE8-8" value="" style="endArrow=classic;html=1;rounded=0;entryX=0.25;entryY=0.105;entryDx=0;entryDy=0;entryPerimeter=0;" edge="1" parent="WIyWlLk6GJQsqaUBKTNV-1" target="8-UZZp7eL8nday4LSBE8-1">
          <mxGeometry width="50" height="50" relative="1" as="geometry">
            <mxPoint x="310" y="120" as="sourcePoint" />
            <mxPoint x="330" y="70" as="targetPoint" />
          </mxGeometry>
        </mxCell>
        <mxCell id="8-UZZp7eL8nday4LSBE8-10" value="get_authorize_uri(google)" style="edgeLabel;html=1;align=center;verticalAlign=middle;resizable=0;points=[];" vertex="1" connectable="0" parent="8-UZZp7eL8nday4LSBE8-8">
          <mxGeometry x="-0.4" y="-1" relative="1" as="geometry">
            <mxPoint x="26" y="-1" as="offset" />
          </mxGeometry>
        </mxCell>
        <mxCell id="8-UZZp7eL8nday4LSBE8-11" value="" style="endArrow=classic;html=1;rounded=0;entryX=0.875;entryY=0.158;entryDx=0;entryDy=0;entryPerimeter=0;exitX=0.25;exitY=0.158;exitDx=0;exitDy=0;exitPerimeter=0;" edge="1" parent="WIyWlLk6GJQsqaUBKTNV-1" source="8-UZZp7eL8nday4LSBE8-1" target="8-UZZp7eL8nday4LSBE8-0">
          <mxGeometry width="50" height="50" relative="1" as="geometry">
            <mxPoint x="390" y="420" as="sourcePoint" />
            <mxPoint x="440" y="370" as="targetPoint" />
          </mxGeometry>
        </mxCell>
        <mxCell id="8-UZZp7eL8nday4LSBE8-12" value="authorize_uri" style="edgeLabel;html=1;align=center;verticalAlign=middle;resizable=0;points=[];" vertex="1" connectable="0" parent="8-UZZp7eL8nday4LSBE8-11">
          <mxGeometry x="0.1467" y="3" relative="1" as="geometry">
            <mxPoint y="-3" as="offset" />
          </mxGeometry>
        </mxCell>
        <mxCell id="8-UZZp7eL8nday4LSBE8-13" value="" style="endArrow=classic;html=1;rounded=0;exitX=0.5;exitY=0.237;exitDx=0;exitDy=0;exitPerimeter=0;entryX=0.5;entryY=0.237;entryDx=0;entryDy=0;entryPerimeter=0;" edge="1" parent="WIyWlLk6GJQsqaUBKTNV-1" source="8-UZZp7eL8nday4LSBE8-0" target="8-UZZp7eL8nday4LSBE8-2">
          <mxGeometry width="50" height="50" relative="1" as="geometry">
            <mxPoint x="390" y="420" as="sourcePoint" />
            <mxPoint x="440" y="370" as="targetPoint" />
          </mxGeometry>
        </mxCell>
        <mxCell id="8-UZZp7eL8nday4LSBE8-15" value="authorize redirect" style="edgeLabel;html=1;align=center;verticalAlign=middle;resizable=0;points=[];" vertex="1" connectable="0" parent="8-UZZp7eL8nday4LSBE8-13">
          <mxGeometry x="-0.5792" y="1" relative="1" as="geometry">
            <mxPoint x="9" as="offset" />
          </mxGeometry>
        </mxCell>
        <mxCell id="8-UZZp7eL8nday4LSBE8-14" value="" style="endArrow=none;dashed=1;html=1;dashPattern=1 3;strokeWidth=2;rounded=0;entryX=0.5;entryY=0.053;entryDx=0;entryDy=0;entryPerimeter=0;" edge="1" parent="WIyWlLk6GJQsqaUBKTNV-1" target="8-UZZp7eL8nday4LSBE8-0">
          <mxGeometry width="50" height="50" relative="1" as="geometry">
            <mxPoint x="280" y="170" as="sourcePoint" />
            <mxPoint x="440" y="370" as="targetPoint" />
          </mxGeometry>
        </mxCell>
        <mxCell id="8-UZZp7eL8nday4LSBE8-16" value="" style="endArrow=classic;html=1;rounded=0;entryX=0.5;entryY=0.342;entryDx=0;entryDy=0;entryPerimeter=0;exitX=0.5;exitY=0.342;exitDx=0;exitDy=0;exitPerimeter=0;" edge="1" parent="WIyWlLk6GJQsqaUBKTNV-1" source="8-UZZp7eL8nday4LSBE8-2" target="8-UZZp7eL8nday4LSBE8-1">
          <mxGeometry width="50" height="50" relative="1" as="geometry">
            <mxPoint x="390" y="420" as="sourcePoint" />
            <mxPoint x="440" y="370" as="targetPoint" />
          </mxGeometry>
        </mxCell>
        <mxCell id="8-UZZp7eL8nday4LSBE8-17" value="authorization code redirect" style="edgeLabel;html=1;align=center;verticalAlign=middle;resizable=0;points=[];" vertex="1" connectable="0" parent="8-UZZp7eL8nday4LSBE8-16">
          <mxGeometry x="0.272" relative="1" as="geometry">
            <mxPoint x="29" y="-10" as="offset" />
          </mxGeometry>
        </mxCell>
        <mxCell id="8-UZZp7eL8nday4LSBE8-18" value="" style="endArrow=classic;html=1;rounded=0;entryX=0.375;entryY=0.447;entryDx=0;entryDy=0;entryPerimeter=0;exitX=0.75;exitY=0.447;exitDx=0;exitDy=0;exitPerimeter=0;" edge="1" parent="WIyWlLk6GJQsqaUBKTNV-1" source="8-UZZp7eL8nday4LSBE8-1" target="8-UZZp7eL8nday4LSBE8-2">
          <mxGeometry width="50" height="50" relative="1" as="geometry">
            <mxPoint x="540" y="270" as="sourcePoint" />
            <mxPoint x="760" y="269.5" as="targetPoint" />
          </mxGeometry>
        </mxCell>
        <mxCell id="8-UZZp7eL8nday4LSBE8-19" value="token request(code)" style="edgeLabel;html=1;align=center;verticalAlign=middle;resizable=0;points=[];" vertex="1" connectable="0" parent="8-UZZp7eL8nday4LSBE8-18">
          <mxGeometry x="-0.104" y="-1" relative="1" as="geometry">
            <mxPoint y="-10" as="offset" />
          </mxGeometry>
        </mxCell>
        <mxCell id="8-UZZp7eL8nday4LSBE8-20" value="" style="endArrow=classic;html=1;rounded=0;exitX=0.375;exitY=0.526;exitDx=0;exitDy=0;exitPerimeter=0;entryX=0.75;entryY=0.526;entryDx=0;entryDy=0;entryPerimeter=0;" edge="1" parent="WIyWlLk6GJQsqaUBKTNV-1" source="8-UZZp7eL8nday4LSBE8-2" target="8-UZZp7eL8nday4LSBE8-1">
          <mxGeometry width="50" height="50" relative="1" as="geometry">
            <mxPoint x="390" y="420" as="sourcePoint" />
            <mxPoint x="530" y="300" as="targetPoint" />
          </mxGeometry>
        </mxCell>
        <mxCell id="8-UZZp7eL8nday4LSBE8-21" value="token response" style="edgeLabel;html=1;align=center;verticalAlign=middle;resizable=0;points=[];" vertex="1" connectable="0" parent="8-UZZp7eL8nday4LSBE8-20">
          <mxGeometry x="0.144" y="1" relative="1" as="geometry">
            <mxPoint x="13" y="-11" as="offset" />
          </mxGeometry>
        </mxCell>
        <mxCell id="8-UZZp7eL8nday4LSBE8-22" value="" style="endArrow=classic;html=1;rounded=0;entryX=0.5;entryY=0.632;entryDx=0;entryDy=0;entryPerimeter=0;exitX=0.5;exitY=0.632;exitDx=0;exitDy=0;exitPerimeter=0;" edge="1" parent="WIyWlLk6GJQsqaUBKTNV-1" source="8-UZZp7eL8nday4LSBE8-1" target="8-UZZp7eL8nday4LSBE8-0">
          <mxGeometry width="50" height="50" relative="1" as="geometry">
            <mxPoint x="390" y="410" as="sourcePoint" />
            <mxPoint x="440" y="360" as="targetPoint" />
          </mxGeometry>
        </mxCell>
        <mxCell id="8-UZZp7eL8nday4LSBE8-24" value="token redirect" style="edgeLabel;html=1;align=center;verticalAlign=middle;resizable=0;points=[];" vertex="1" connectable="0" parent="8-UZZp7eL8nday4LSBE8-22">
          <mxGeometry x="0.1304" y="3" relative="1" as="geometry">
            <mxPoint y="-13" as="offset" />
          </mxGeometry>
        </mxCell>
        <mxCell id="8-UZZp7eL8nday4LSBE8-23" value="" style="endArrow=none;dashed=1;html=1;dashPattern=1 3;strokeWidth=2;rounded=0;entryX=0.5;entryY=0.342;entryDx=0;entryDy=0;entryPerimeter=0;exitX=0.5;exitY=0.632;exitDx=0;exitDy=0;exitPerimeter=0;" edge="1" parent="WIyWlLk6GJQsqaUBKTNV-1" source="8-UZZp7eL8nday4LSBE8-1" target="8-UZZp7eL8nday4LSBE8-1">
          <mxGeometry width="50" height="50" relative="1" as="geometry">
            <mxPoint x="390" y="410" as="sourcePoint" />
            <mxPoint x="520" y="210" as="targetPoint" />
          </mxGeometry>
        </mxCell>
      </root>
    </mxGraphModel>
  </diagram>
</mxfile>
